<?xml version="1.0" standalone="no"?>
<!DOCTYPE svg PUBLIC "-//W3C//DTD SVG 20010904//EN"
 "http://www.w3.org/TR/2001/REC-SVG-20010904/DTD/svg10.dtd">
<svg version="1.0" xmlns="http://www.w3.org/2000/svg"
 width="1024.000000pt" height="1024.000000pt" viewBox="0 0 1024.000000 1024.000000"
 preserveAspectRatio="xMidYMid meet">

<g transform="translate(0.000000,1024.000000) scale(0.100000,-0.100000)"
fill="#000000" stroke="none">
<path d="M6296 8866 c-26 -27 -58 -49 -82 -55 -48 -14 -58 -20 -73 -49 -10
-19 -10 -28 4 -48 19 -29 78 -33 107 -7 10 9 20 14 23 12 2 -3 5 -61 6 -131 0
-71 6 -136 13 -149 16 -32 60 -45 90 -26 22 15 23 20 30 232 6 188 5 221 -9
241 -24 37 -59 31 -109 -20z"/>
<path d="M4990 8850 c-22 -11 -69 -63 -125 -136 -49 -65 -149 -192 -221 -283
-332 -423 -406 -516 -515 -652 -129 -162 -139 -177 -139 -213 0 -76 77 -120
152 -85 13 5 75 76 138 156 63 80 148 187 188 237 40 50 134 170 209 266 349
447 349 446 399 420 20 -11 81 -79 151 -170 48 -63 338 -426 342 -430 4 -3 51
-61 105 -130 146 -183 175 -210 226 -210 80 0 127 85 83 150 -9 14 -69 90
-133 170 -122 153 -517 653 -635 804 -98 126 -145 149 -225 106z"/>
<path d="M3606 8777 c-29 -32 -55 -49 -86 -57 -55 -14 -80 -36 -80 -67 0 -27
33 -63 58 -63 9 0 30 7 46 15 15 8 32 15 38 15 5 0 8 -61 7 -142 -1 -142 -1
-142 26 -165 32 -28 45 -29 79 -2 l26 20 0 223 c0 236 -2 247 -48 261 -20 6
-31 -1 -66 -38z"/>
<path d="M7032 8537 c-45 -14 -89 -60 -102 -105 -16 -59 -13 -246 5 -290 32
-76 86 -112 166 -112 67 0 126 33 157 88 20 36 22 54 22 172 0 125 -2 136 -25
177 -43 73 -130 100 -223 70z m112 -113 c13 -12 16 -40 16 -134 0 -131 -8
-150 -59 -150 -46 0 -51 14 -51 152 0 110 2 128 18 137 25 15 58 13 76 -5z"/>
<path d="M2850 8388 c-74 -38 -90 -82 -90 -245 0 -142 3 -154 55 -211 49 -54
132 -64 210 -25 76 38 97 95 93 254 -3 118 -5 128 -30 167 -38 56 -67 73 -135
79 -47 4 -66 0 -103 -19z m126 -102 c17 -13 19 -29 22 -131 4 -110 2 -118 -19
-141 -27 -29 -52 -31 -79 -4 -18 18 -20 33 -20 133 0 86 4 118 16 135 17 25
51 29 80 8z"/>
<path d="M6362 8172 c-34 -35 -60 -52 -93 -60 -55 -14 -72 -31 -67 -69 5 -42
44 -58 99 -39 24 8 45 13 47 11 2 -2 6 -68 9 -147 4 -128 7 -145 25 -160 25
-22 62 -23 82 -2 14 13 16 50 16 254 0 226 -1 240 -19 250 -34 18 -51 11 -99
-38z"/>
<path d="M5006 7988 c-14 -13 -86 -101 -160 -197 -102 -132 -136 -184 -141
-213 -5 -29 -31 -69 -102 -156 -143 -176 -183 -232 -183 -256 1 -28 26 -57 74
-86 50 -30 76 -74 76 -129 0 -39 -5 -49 -40 -83 -29 -27 -50 -38 -71 -38 -63
0 -93 24 -183 143 -47 63 -93 118 -102 121 -31 12 -74 6 -93 -13 -11 -11 -54
-63 -97 -118 -126 -159 -570 -711 -746 -929 -90 -111 -217 -268 -283 -349 -66
-81 -179 -218 -250 -304 -72 -86 -140 -168 -150 -182 -25 -33 -380 -456 -537
-640 -225 -264 -388 -463 -388 -475 0 -26 36 -24 99 7 112 55 244 200 706 774
66 83 145 176 175 208 100 107 226 183 370 222 183 50 265 114 458 355 64 80
135 165 158 190 23 25 49 60 58 78 59 115 236 84 262 -45 14 -69 -52 -143
-127 -143 -42 0 -55 -13 -195 -190 -124 -158 -193 -231 -269 -285 -77 -55
-185 -109 -261 -130 -205 -58 -267 -101 -402 -280 -155 -205 -558 -693 -637
-770 -86 -85 -156 -132 -254 -171 -82 -33 -146 -44 -261 -44 -97 0 -98 0 -124
-31 -14 -17 -26 -42 -26 -55 0 -33 25 -81 49 -94 29 -15 245 -12 323 4 84 18
167 57 238 112 60 46 69 56 172 192 82 108 145 162 224 191 149 56 298 44 419
-34 46 -30 139 -119 182 -173 11 -14 24 -21 33 -17 14 6 85 87 260 293 140
166 296 255 414 238 62 -10 106 -59 106 -119 0 -78 -56 -121 -146 -111 -91 10
-138 -22 -278 -190 -189 -228 -218 -266 -213 -279 12 -31 168 -116 243 -132
16 -4 83 -9 149 -11 145 -5 212 9 334 68 72 35 102 58 187 143 55 55 156 170
224 255 68 85 138 172 157 193 39 44 42 76 9 113 -18 21 -32 28 -61 28 -44 0
-66 -21 -212 -204 -107 -133 -252 -281 -320 -326 -74 -49 -147 -81 -228 -99
-39 -9 -79 -19 -91 -21 -40 -11 -102 15 -131 53 -48 63 -32 139 40 184 32 20
52 21 163 3 33 -5 53 0 98 21 101 48 124 73 774 854 268 322 264 318 298 306
19 -7 114 -112 302 -335 306 -363 503 -589 582 -667 56 -56 163 -117 223 -128
22 -4 56 -2 82 5 25 7 60 9 80 6 43 -8 100 -62 108 -104 12 -57 -19 -124 -70
-150 -34 -19 -104 -14 -138 8 -16 11 -45 20 -63 20 -47 0 -155 45 -235 97 -37
25 -101 83 -145 131 -129 144 -127 142 -166 142 -19 0 -42 -7 -50 -16 -32 -31
-19 -60 83 -181 175 -209 251 -275 376 -323 49 -20 79 -24 170 -24 104 -1 114
1 178 31 82 39 154 105 262 243 103 131 165 190 243 229 108 54 182 66 299 46
152 -26 243 -96 243 -187 0 -43 -33 -96 -68 -109 -51 -20 -93 -5 -144 52 -46
50 -51 53 -106 57 -50 4 -67 0 -119 -26 -83 -42 -113 -70 -198 -181 -182 -240
-351 -345 -570 -356 -149 -7 -335 61 -474 173 -90 73 -216 217 -513 590 -93
116 -111 132 -150 132 -38 -1 -62 -21 -134 -110 -38 -47 -71 -87 -74 -90 -3
-3 -28 -34 -55 -70 -292 -386 -459 -538 -687 -623 -99 -38 -197 -51 -333 -44
-190 10 -296 44 -446 143 -37 24 -69 44 -72 44 -3 0 -27 -18 -53 -40 -70 -59
-171 -106 -255 -120 -96 -16 -254 -9 -297 14 -86 45 -98 169 -20 216 49 29
109 26 149 -7 29 -25 40 -28 103 -27 56 0 82 6 122 27 61 31 114 74 114 92 0
26 -149 173 -202 199 -70 35 -153 35 -223 2 -62 -29 -89 -55 -160 -151 -80
-108 -92 -122 -172 -186 -92 -73 -231 -143 -325 -163 -50 -11 -142 -16 -295
-18 l-222 -3 -30 -29 c-52 -50 -38 -126 29 -161 26 -13 425 -15 3368 -15 2952
0 3341 2 3352 15 10 12 2 28 -51 95 -52 64 -72 82 -104 91 -90 25 -127 104
-88 186 45 96 189 98 238 3 8 -16 15 -37 15 -48 0 -23 152 -205 209 -250 23
-18 67 -45 99 -60 57 -27 58 -27 324 -30 l266 -3 32 28 c22 20 33 40 37 69 5
36 1 46 -25 75 l-30 34 -184 3 c-122 1 -203 7 -243 17 -146 37 -273 134 -376
288 -90 136 -123 172 -181 201 -61 30 -105 33 -172 9 -60 -22 -104 -64 -180
-173 -112 -160 -244 -269 -375 -311 -92 -29 -230 -36 -300 -15 -30 9 -66 16
-80 16 -39 0 -104 37 -128 73 -50 73 -10 177 73 193 49 9 74 0 120 -45 110
-105 297 -71 440 81 53 55 144 178 144 193 0 6 -19 22 -42 35 -54 30 -170 141
-260 249 -40 47 -111 131 -158 186 -47 55 -114 136 -150 180 -110 138 -139
165 -181 165 -30 0 -43 -7 -72 -39 -19 -22 -41 -49 -47 -61 -20 -37 -69 -50
-197 -50 -131 -1 -141 -4 -195 -65 -93 -105 -76 -172 38 -145 61 15 92 9 132
-25 72 -61 52 -195 -35 -231 -51 -22 -106 -10 -146 30 -30 31 -38 34 -117 40
-156 12 -237 52 -354 176 -72 76 -101 128 -91 161 4 11 73 100 153 198 81 98
228 279 327 402 224 278 254 310 284 302 12 -3 66 -58 119 -122 115 -139 309
-366 407 -476 39 -44 129 -147 200 -230 282 -328 320 -372 364 -413 92 -85
173 -108 273 -77 59 17 158 13 229 -10 113 -37 199 -112 285 -247 126 -198
245 -278 415 -278 47 0 63 5 88 26 33 28 41 67 20 106 -12 22 -597 750 -718
893 -42 50 -125 151 -183 225 -59 74 -191 239 -293 365 -102 127 -318 395
-480 597 -208 259 -302 369 -320 374 -53 13 -72 -3 -177 -142 -128 -170 -122
-170 -233 -23 -44 59 -163 215 -265 348 -759 993 -760 995 -760 1026 0 12 20
45 45 74 25 29 45 59 45 66 0 8 -13 29 -28 47 -16 18 -75 94 -132 168 -56 74
-116 150 -133 168 -37 38 -75 42 -111 10z m384 -914 c68 -28 101 -117 67 -184
-30 -60 -116 -86 -178 -55 -105 55 -83 218 33 245 18 4 34 8 35 9 2 1 21 -6
43 -15z m-1339 -697 c93 -62 83 -191 -17 -233 -44 -18 -68 -18 -111 3 -67 31
-92 113 -55 181 37 70 119 92 183 49z m653 9 c41 -17 74 -58 82 -102 13 -68
-60 -154 -130 -154 -41 0 -57 -17 -288 -305 -188 -236 -363 -449 -616 -752
-79 -95 -141 -177 -137 -183 3 -5 15 -10 26 -10 29 0 139 53 177 84 50 43 178
198 187 226 19 64 67 101 135 102 84 1 136 -62 128 -152 -5 -44 -11 -59 -37
-82 -18 -16 -48 -31 -71 -34 -35 -6 -48 -16 -84 -63 -44 -56 -138 -152 -188
-191 -77 -60 -224 -100 -365 -100 -63 0 -93 -5 -115 -17 -25 -15 -212 -235
-302 -357 -48 -64 -123 -83 -184 -46 -95 58 -67 201 46 233 52 15 25 -14 443
478 274 323 527 630 853 1034 302 373 302 373 341 391 39 17 58 17 99 0z
m1058 -208 c52 -62 129 -158 172 -212 60 -78 84 -102 114 -112 43 -15 90 -66
94 -103 10 -76 -39 -146 -107 -157 -75 -11 -147 45 -164 128 -8 37 -179 254
-212 268 -31 13 -73 0 -102 -33 -39 -43 -248 -308 -316 -399 -83 -113 -99
-127 -143 -134 -63 -11 -128 44 -128 106 0 38 32 92 68 113 18 11 79 77 135
146 246 307 421 510 441 514 34 5 48 -7 148 -125z m1036 -555 c18 -16 38 -45
45 -65 7 -23 96 -134 239 -300 124 -145 280 -327 347 -405 109 -128 124 -142
160 -148 80 -13 129 -108 95 -181 -25 -52 -68 -76 -127 -71 -58 5 -96 31 -120
82 -10 20 -176 221 -369 446 -287 335 -355 409 -375 409 -35 0 -90 58 -98 104
-22 116 116 203 203 129z"/>
<path d="M3494 7809 c-11 -6 -28 -24 -38 -40 -19 -32 -53 -53 -103 -64 -65
-13 -78 -89 -19 -110 25 -9 34 -7 99 20 16 7 17 -4 17 -136 0 -79 4 -149 8
-155 10 -15 47 -34 66 -34 9 0 25 9 36 20 19 19 20 33 20 248 0 209 -2 230
-18 245 -21 19 -37 20 -68 6z"/>
<path d="M2603 7649 c-31 -32 -50 -43 -89 -50 -56 -10 -88 -40 -78 -73 13 -44
57 -55 132 -31 l22 7 0 -134 c0 -158 8 -178 70 -178 29 0 42 5 50 19 15 29 14
453 -2 469 -25 25 -65 13 -105 -29z"/>
<path d="M7415 7587 c-70 -40 -81 -67 -89 -220 -6 -126 -5 -139 15 -179 33
-68 76 -92 165 -92 79 0 107 12 148 68 18 23 22 47 26 158 7 183 -9 230 -95
269 -55 25 -121 24 -170 -4z m129 -103 c24 -23 23 -240 -1 -266 -20 -22 -51
-23 -75 -1 -15 14 -18 32 -18 131 0 93 3 119 17 134 20 22 56 23 77 2z"/>
<path d="M6751 7230 c-40 -9 -77 -36 -105 -74 -19 -24 -21 -45 -24 -180 l-4
-152 34 -45 c41 -54 90 -73 166 -66 36 4 64 14 88 32 57 44 64 67 64 226 0
127 -2 145 -22 181 -37 65 -117 97 -197 78z m89 -129 c5 -11 10 -74 10 -141 0
-118 -1 -121 -24 -131 -36 -17 -72 -4 -86 31 -15 36 -8 207 10 240 15 27 75
28 90 1z"/>
<path d="M3101 7190 c-24 -30 -44 -43 -87 -56 -40 -11 -58 -23 -66 -40 -15
-32 3 -71 37 -80 27 -7 85 12 85 28 0 5 5 6 10 3 6 -4 10 -65 10 -151 0 -131
2 -146 20 -164 25 -25 72 -26 93 -2 15 16 17 48 17 244 0 205 -2 226 -18 241
-32 29 -65 21 -101 -23z"/>
<path d="M5980 6940 c-11 -11 -20 -29 -20 -39 0 -10 56 -90 124 -177 68 -88
166 -213 217 -279 106 -134 132 -152 177 -118 15 11 28 27 30 34 3 15 -48 85
-287 394 -79 102 -152 190 -162 195 -28 16 -57 12 -79 -10z"/>
<path d="M2115 6877 c-67 -38 -76 -68 -73 -244 l3 -152 34 -35 c78 -80 239
-66 286 24 23 45 25 292 2 335 -47 90 -161 123 -252 72z m145 -106 c14 -28 13
-244 -2 -259 -19 -19 -73 -14 -92 7 -15 17 -17 36 -14 129 2 73 7 114 17 125
19 24 78 22 91 -2z"/>
<path d="M7621 6740 c-36 -40 -55 -52 -86 -57 -43 -6 -85 -37 -85 -63 0 -8 7
-26 16 -38 18 -26 70 -30 100 -7 41 31 44 22 44 -120 0 -122 2 -137 20 -155
25 -25 72 -26 93 -2 15 16 17 48 17 239 0 200 -2 221 -18 236 -30 27 -52 20
-101 -33z"/>
<path d="M1407 3050 c-53 -42 -40 -142 22 -174 27 -14 383 -16 3646 -16 2644
0 3622 3 3638 11 38 19 57 51 57 97 0 35 -6 49 -29 73 l-29 29 -3640 0 -3639
0 -26 -20z"/>
<path d="M1733 2645 c-61 -26 -73 -102 -24 -157 l29 -33 3299 -3 c1814 -1
3313 0 3331 3 48 9 82 51 82 101 0 35 -6 47 -35 73 l-36 31 -3307 0 c-2788 -1
-3312 -3 -3339 -15z"/>
<path d="M2254 2239 c-47 -13 -69 -44 -69 -96 0 -38 5 -49 33 -74 l32 -29
2828 0 c2648 0 2829 1 2852 17 38 26 49 45 50 84 0 47 -30 85 -78 99 -47 13
-5603 12 -5648 -1z"/>
<path d="M6025 1810 c-56 -9 -97 -33 -139 -82 -129 -150 -20 -374 179 -372
110 2 201 86 219 202 21 140 -115 273 -259 252z"/>
<path d="M3414 1799 c-65 -19 -136 -113 -150 -198 -14 -89 57 -196 149 -227
150 -50 294 39 305 187 2 31 -1 72 -7 91 -16 47 -75 114 -122 138 -41 21 -119
25 -175 9z"/>
<path d="M4053 1797 c-40 -15 -98 -68 -120 -111 -9 -17 -18 -60 -21 -96 -5
-74 13 -123 65 -172 59 -56 169 -77 245 -45 147 62 185 250 75 365 -64 68
-158 90 -244 59z"/>
<path d="M4685 1791 c-172 -80 -182 -311 -19 -407 82 -48 209 -30 270 38 39
42 57 79 65 129 27 172 -158 313 -316 240z"/>
<path d="M5334 1797 c-112 -44 -176 -190 -131 -300 64 -152 268 -190 378 -70
107 115 67 306 -78 369 -39 17 -126 17 -169 1z"/>
<path d="M6616 1796 c-79 -29 -135 -109 -143 -205 -4 -48 -1 -64 24 -111 75
-143 270 -164 375 -40 42 48 63 120 53 179 -9 55 -56 125 -106 158 -50 33
-141 42 -203 19z"/>
</g>
</svg>
